# xmcd
#
# Track frame offsets: 
#        150
#        16408
#        34261
#        53215
#        73485
#        90332
#        106078
#        118940
#        136828
#        157196
#
# Disc length: 2473 seconds
#
# Revision: 0
# Processed by: cddbd v1.5.2PL0 Copyright (c) Steve Scherf et al.
# Submitted via: ExactAudioCopy v0.99pb4
#
DISCID=8809a70a
DTITLE=Treasa Levasseur - Low Fidelity
DYEAR=2008
DGENRE=Blues
TTITLE0=Help Me Over
TTITLE1=Good Ones Never Share
TTITLE2=Talk To Me Babe
TTITLE3=Truth Will Set You Free
TTITLE4=Low Fidelity
TTITLE5=Big Fat Mouth
TTITLE6=Give Me Just One
TTITLE7=Rest Of The Ride
TTITLE8=Stuck In Soulsvillle
TTITLE9=Amen
EXTD=
EXTT0=
EXTT1=
EXTT2=
EXTT3=
EXTT4=
EXTT5=
EXTT6=
EXTT7=
EXTT8=
EXTT9=
PLAYORDER=
